# xmcd
# Track frame offsets:
# 150
# 16030
# 30602
# 46322
# 63755
# 79000
# 95302
# 110682
# 125775
# 137017
# 146910
#
# Disc length: 2143 seconds
# Revision: 0
# Processed by: cddbd v1.4PL0 Copyright (c) Steve Scherf et al.
# Submitted via: VisiTrax 2.9.5.180 - For more info visit www.synapsa.com
#
DISCID=90085d0b
DTITLE=United Steels Of Europe - Divine Lines
DYEAR=1987
DGENRE=
TTITLE0=Lick It Up
TTITLE1=Big As Tune
TTITLE2=Emilie's Lullaby
TTITLE3=Beyond The Point Of No Return
TTITLE4=Steel, Steel, Steel
TTITLE5=Teasing
TTITLE6=Sweet Talk
TTITLE7=First Step Alone
TTITLE8=Fingertips
TTITLE9=Clariunconventional Blues
TTITLE10=Divine
EXTD=
EXTT0=
EXTT1=
EXTT2=
EXTT3=
EXTT4=
EXTT5=
EXTT6=
EXTT7=
EXTT8=
EXTT9=
EXTT10=
PLAYORDER=
